<mxfile host="app.diagrams.net" modified="2022-07-02T05:45:27.719Z" agent="5.0 (Macintosh; Intel Mac OS X 10_15_7) AppleWebKit/537.36 (KHTML, like Gecko) Chrome/102.0.0.0 Safari/537.36" etag="zpba8pAna6SvBKsaBWXf" version="20.0.4" type="github">
  <diagram id="fg8l1_sHuMjB2g9FjELG" name="Page-1">
    <mxGraphModel dx="786" dy="521" grid="1" gridSize="10" guides="1" tooltips="1" connect="1" arrows="1" fold="1" page="1" pageScale="1" pageWidth="850" pageHeight="1100" math="0" shadow="0">
      <root>
        <mxCell id="0" />
        <mxCell id="1" parent="0" />
        <mxCell id="YeKtraM9uPKnGrGfIVZY-5" value="" style="shape=stencil(lZLbDoMgDIafhtsGaBG8dtt7mKiTzKlRd3r7SdiyqYHEu7b8X+mJYTbWeV8yycdp6C7lwxZTzfDApLRtXQ52mi2GR4ZZ1Q3leehubeH9PndKZ127u8vw9JzgHDh3mOSvTejkkca2ccQYILGLSARo2kWgBpPuIzgQholUgcFl5wqcGwQEJHoBEKAK6w0CLj+ID1bzdUEShA7rlVnnT0BF6icConXDaWQLUm1GSqBNGNisgPS3pY9+Nn6nWNmm8Zf8/74+3Tnkzx6Pbw==);fillColor=none;" parent="1" vertex="1">
          <mxGeometry x="544" y="256.25" width="3" height="5.75" as="geometry" />
        </mxCell>
        <mxCell id="YeKtraM9uPKnGrGfIVZY-6" value="" style="verticalLabelPosition=bottom;verticalAlign=top;html=1;shadow=0;dashed=0;strokeWidth=1;shape=mxgraph.android.phone2;strokeColor=#c0c0c0;" parent="1" vertex="1">
          <mxGeometry x="290" y="280" width="310" height="530" as="geometry" />
        </mxCell>
        <mxCell id="YeKtraM9uPKnGrGfIVZY-7" value="" style="rounded=0;whiteSpace=wrap;html=1;" parent="1" vertex="1">
          <mxGeometry x="300" y="330" width="290" height="140" as="geometry" />
        </mxCell>
      </root>
    </mxGraphModel>
  </diagram>
</mxfile>
